<svg id="visual" viewBox="0 0 900 600" width="900" height="600" xmlns="http://www.w3.org/2000/svg" xmlns:xlink="http://www.w3.org/1999/xlink" version="1.1"><rect width="900" height="600" fill="#242424"></rect><g><g transform="translate(552 250)"><path d="M0 -42.9L33.6 -26.8L41.9 9.6L18.6 38.7L-18.6 38.7L-41.9 9.6L-33.6 -26.8Z" fill="none" stroke="#4ea9ad" stroke-width="2"></path></g><g transform="translate(245 327)"><path d="M0 -42L32.8 -26.2L40.9 9.3L18.2 37.8L-18.2 37.8L-40.9 9.3L-32.8 -26.2Z" fill="none" stroke="#4ea9ad" stroke-width="2"></path></g><g transform="translate(106 428)"><path d="M0 -42L32.8 -26.2L40.9 9.3L18.2 37.8L-18.2 37.8L-40.9 9.3L-32.8 -26.2Z" stroke="#4ea9ad" fill="none" stroke-width="2"></path></g><g transform="translate(137 589)"><path d="M0 -42L32.8 -26.2L40.9 9.3L18.2 37.8L-18.2 37.8L-40.9 9.3L-32.8 -26.2Z" stroke="#4ea9ad" fill="none" stroke-width="2"></path></g><g transform="translate(849 488)"><path d="M0 -42L32.8 -26.2L40.9 9.3L18.2 37.8L-18.2 37.8L-40.9 9.3L-32.8 -26.2Z" stroke="#4ea9ad" fill="none" stroke-width="2"></path></g><g transform="translate(146 185)"><path d="M0 -42L32.8 -26.2L40.9 9.3L18.2 37.8L-18.2 37.8L-40.9 9.3L-32.8 -26.2Z" stroke="#4ea9ad" fill="none" stroke-width="2"></path></g><g transform="translate(335 481)"><path d="M0 -42L32.8 -26.2L40.9 9.3L18.2 37.8L-18.2 37.8L-40.9 9.3L-32.8 -26.2Z" stroke="#4ea9ad" fill="none" stroke-width="2"></path></g><g transform="translate(425 184)"><path d="M0 -42L32.8 -26.2L40.9 9.3L18.2 37.8L-18.2 37.8L-40.9 9.3L-32.8 -26.2Z" stroke="#4ea9ad" fill="none" stroke-width="2"></path></g><g transform="translate(869 305)"><path d="M0 -42L32.8 -26.2L40.9 9.3L18.2 37.8L-18.2 37.8L-40.9 9.3L-32.8 -26.2Z" stroke="#4ea9ad" fill="none" stroke-width="2"></path></g></g></svg>